SplineFontDB: 3.0
FontName: zlm-tnr
FullName: Zbalermorna TNR
FamilyName: zbalermorna
Weight: Regular
Copyright: Copyright (c) 2016, la kmir, 2019 Jack Humbert
UComments: "2016-12-9: Created with FontForge (http://fontforge.org)"
Version: 001.000
ItalicAngle: 0
UnderlinePosition: -90
UnderlineWidth: 464
Ascent: 800
Descent: 200
InvalidEm: 0
LayerCount: 2
Layer: 0 0 "Back" 1
Layer: 1 0 "Fore" 0
XUID: [1021 15 -1537435809 229010]
FSType: 0
OS2Version: 0
OS2_WeightWidthSlopeOnly: 0
OS2_UseTypoMetrics: 1
CreationTime: 1481267425
ModificationTime: 1564026229
PfmFamily: 17
TTFWeight: 400
TTFWidth: 5
LineGap: 82
VLineGap: 0
OS2TypoAscent: 0
OS2TypoAOffset: 1
OS2TypoDescent: 0
OS2TypoDOffset: 1
OS2TypoLinegap: 82
OS2WinAscent: 0
OS2WinAOffset: 1
OS2WinDescent: 0
OS2WinDOffset: 1
HheadAscent: 0
HheadAOffset: 1
HheadDescent: 0
HheadDOffset: 1
OS2Vendor: 'PfEd'
Lookup: 6 0 0 "'rlig' Required Ligatures lookup 0" { "'rlig' Required Ligatures lookup 0 contextual 0"  "'rlig' Required Ligatures lookup 0 contextual 1"  "'rlig' Required Ligatures lookup 0 contextual 2"  "'rlig' Required Ligatures lookup 0 contextual 3"  "'rlig' Required Ligatures lookup 0 contextual 4"  "'rlig' Required Ligatures lookup 0 contextual 5"  "'rlig' Required Ligatures lookup 0 contextual 6"  "'rlig' Required Ligatures lookup 0 contextual 7"  "'rlig' Required Ligatures lookup 0 contextual 8"  "'rlig' Required Ligatures lookup 0 contextual 9"  "'rlig' Required Ligatures lookup 0 contextual 10"  "'rlig' Required Ligatures lookup 0 contextual 11"  "'rlig' Required Ligatures lookup 0 contextual 12"  "'rlig' Required Ligatures lookup 0 contextual 13"  "'rlig' Required Ligatures lookup 0 contextual 14"  "'rlig' Required Ligatures lookup 0 contextual 15"  "'rlig' Required Ligatures lookup 0 contextual 16"  } ['rlig' ('DFLT' <'dflt' > ) ]
Lookup: 4 0 0 "Ligature Substitution lookup 1" { "Ligature Substitution lookup 1 subtable"  } []

StartChar: ZLM_H
Encoding: 16 926480 12
Width: 250
VWidth: 0
GlyphClass: 2
Flags: W
HStem: 0 20<48 80.7246 214.014 238> 422 23<32 53.2>
VStem: 98 100<27.1117 426.008>
LayerCount: 2
Fore
SplineSet
24 445 m 24
 170 480 l 0
 198 480 l 1
 198 480 198 223 198 65 c 27
 198 42 214 21 238 21 c 0
 238 0 l 1
 48 0 l 1
 48 20 l 3
 80 20 98 40 98 66 c 3
 98 194 98 260.932617188 98 379 c 23
 98 408.14453125 103.561523438 439.5078125 32 422 c 0
 24 445 l 24
EndSplineSet
Validated: 33
EndChar

StartChar: ZLM_P
Encoding: 32 926496 24
Width: 450
VWidth: 0
Flags: W
HStem: 0 22<24 59.7452> 451 19<294 317.074> 668 23<24 48.7059>
VStem: 74 100<60.3293 669.594>
LayerCount: 2
Fore
SplineSet
24 691 m 1
 144 725 l 0
 175 725 l 1
 174 60 l 4
 243 66.2259320584 274.706054688 139.044921875 300 220 c 0
 322.453125 291.86328125 326.3515625 382.260742188 324 418 c 1
 326.1328125 436.666992188 316 449 294 451 c 1
 294 470 l 1
 425 470 l 1
 425 470 407 320 387 252 c 0
 353.052734375 136.579101562 279 0 122 0 c 0
 122 0 57.5458984375 0 24 0 c 1
 24 22 l 0
 48 23 74 28 74 74 c 0
 74 634 l 0
 77 669 67 673 24 668 c 0
 24 691 l 1
EndSplineSet
Validated: 33
EndChar

StartChar: ZLM_T
Encoding: 48 926512 36
Width: 550
VWidth: 0
GlyphClass: 2
Flags: W
HStem: 0 20<25 58.8734 192.375 233 330 362.616 488.75 525> 400 80<290.597 397.5>
VStem: 75 100<27.7041 326.97 338 671.357> 374 101<25.7508 371.147>
LayerCount: 2
Fore
SplineSet
175 0 m 1
 25 0 l 1
 25 20 l 0
 51 21 75 34 75 59 c 0
 75 634 l 1
 75 654 68 680 35 669 c 9
 28 688 l 1
 142 725 l 0
 175 725 l 1
 175 338 l 1
 249 438 304 480 359 480 c 0
 436 480 473.263671875 423.005859375 474 267 c 2
 475 55 l 0
 475 32 495 22 525 21 c 0
 525 0 l 1
 330 0 l 1
 330 20 l 0
 360.145507812 21.0498046875 374 34 374 59 c 0
 374 268 l 1
 374 321 362 400 310 400 c 0
 257 400 212 342 175 304 c 0
 175 58 l 0
 175 34 202 20 233 20 c 0
 233 0 l 0
 175 0 l 1
EndSplineSet
Validated: 33
EndChar

StartChar: ZLM_K
Encoding: 64 926528 48
Width: 500
VWidth: 0
GlyphClass: 2
Flags: W
HStem: 0 20<27 64.1641> 8 18<444.134 477> 452 18<275.002 307.944> 690 22<28 64.7826>
VStem: 327.579 100.421<31.279 71 176.649 211.263 410 444.533>
LayerCount: 2
Fore
SplineSet
328 212 m 1049,0,-1
327 -13 m 1,1,-1
 350 -13 l 0,2,-1
 477 8 l 1,3,-1
 477 26 l 1,4,-1
 443.758789062 26 428 43 428 71 c 2,7,-1
 428 411 l 2,8,-1
 428 470 l 2,9,-1
 275 470 l 1,10,-1
 275 463.633789062 275.001953125 452 275.001953125 452 c 3,13,-1
 300 452 327.989163365 438.027028681 327.989163365 410.000005032 c 0,16,-1
 327.989163365 410.000005032 327.862925938 300.881374026 327.579490649 211.263035336 c 1,19,-1
 320.99313791 199.779461563 238.408896811 57.9190280265 177 56 c 1,22,-1
 177 735 l 1,23,-1
 158 735 l 1,24,-1
 24 712 l 1,25,-1
 28 690 l 1,26,-1
 54 694 77 701 77 659 c 2,29,-1
 77 659 77 185 77 52 c 0,32,-1
 77 29 47.5791015625 20 27 20 c 1,35,-1
 27 0 l 1,36,-1
 177 0 l 1,37,-1
 196.697265625 9.73828125 296.985939718 82.1862665734 327.427774022 164.414690826 c 1,40,-1
 327.27037469 116.773006924 327.080078125 38.8935546875 327 -13 c 1,1,-1
EndSplineSet
EndChar

StartChar: ZLM_F
Encoding: 80 926544 60
Width: 500
VWidth: 0
GlyphClass: 2
Flags: W
HStem: 0 25<116 147.631 261.305 296> 438 32<83.7095 342>
VStem: 24 29<343 401.454> 154 100<27.2008 211.629>
LayerCount: 2
Fore
SplineSet
342 438 m 1
 121 438 l 3
 82 438 53 395 53 343 c 0
 24 343 l 1
 24 470 l 1
 474 470 l 1
 474 442 l 1
 474 442 254 303 254 178 c 26
 254 63 l 3
 254 33.982421875 271.211914062 24 296 24 c 1
 296 0 l 1
 262.666992188 0 149.333007812 0 116 0 c 1
 116 25 l 3
 141 25 154 34 154 64 c 0
 154 64 154 55 154 113 c 3
 154 278 342 438 342 438 c 1
EndSplineSet
Validated: 37
EndChar

StartChar: ZLM_BAHEBU_1
Encoding: 95 926559 71
Width: 188
VWidth: 0
GlyphClass: 2
Flags: W
HStem: -251 120<47.7454 140.255>
VStem: 34 120<-237.255 -144.745>
LayerCount: 2
Fore
SplineSet
34 -191 m 4
 34 -158 61 -131 94 -131 c 4
 127 -131 154 -158 154 -191 c 4
 154 -224 127 -251 94 -251 c 4
 61 -251 34 -224 34 -191 c 4
EndSplineSet
Validated: 1
EndChar

StartChar: ZLM_L
Encoding: 96 926560 72
Width: 476
VWidth: 0
GlyphClass: 2
Flags: W
HStem: 443 36<202.823 327.387>
LayerCount: 2
Fore
SplineSet
423.400390625 298 m 0
 360.658203125 285.48046875 352.443359375 328.907226562 355.400390625 371 c 0
 357.3515625 398.782226562 341.3515625 446.573242188 249.400390625 443 c 0
 217.17578125 441.748046875 181.182617188 418.279296875 156.400390625 388 c 0
 126.198242188 351.098632812 116.096679688 296.0859375 123.400390625 235 c 0
 125.541992188 217.083984375 128.458007812 200.801757812 132.206054688 186 c 0
 148.821289062 120.388671875 181.806640625 83.86328125 236.400390625 63 c 0
 268.365234375 50.7841796875 352.549804688 25.2392578125 429.400390625 148 c 1
 451.900390625 141 l 1
 416.749023438 46.490234375 367.859375 -10.1494140625 255.299804688 -10 c 0
 112.200195312 -9.810546875 24 98 24 235 c 0
 24 372 118.2578125 474.178710938 242.400390625 479 c 0
 350.296875 483.190429688 384.435546875 452.462890625 418.400390625 420 c 0
 450.669921875 389.157226562 462.985351562 305.8984375 423.400390625 298 c 0
EndSplineSet
Validated: 33
EndChar

StartChar: ZLM_BAHEBU_2
Encoding: 111 926575 83
Width: 358
VWidth: 0
GlyphClass: 2
Flags: W
HStem: -251 120<47.7454 140.255 217.745 310.255>
VStem: 34 120<-237.255 -144.745> 204 120<-237.255 -144.745>
LayerCount: 2
Fore
SplineSet
204 -191 m 0
 204 -158 231 -131 264 -131 c 0
 297 -131 324 -158 324 -191 c 0
 324 -224 297 -251 264 -251 c 0
 231 -251 204 -224 204 -191 c 0
34 -191 m 0
 34 -158 61 -131 94 -131 c 0
 127 -131 154 -158 154 -191 c 0
 154 -224 127 -251 94 -251 c 0
 61 -251 34 -224 34 -191 c 0
EndSplineSet
Validated: 1
EndChar

StartChar: ZLM_S
Encoding: 112 926576 84
Width: 545
VWidth: 0
GlyphClass: 2
Flags: W
HStem: -11 487<166.974 306>
VStem: 32 92<116.627 322.01> 371 100<64.4321 100 126.922 270 291 660.881>
LayerCount: 2
Fore
SplineSet
312.915039062 680 m 1
 449 725 l 0
 471 725 l 1
 471 291 l 2
 471 203.07421875 471 100 471 100 c 3
 471 58.54296875 495 62 518 67 c 0
 524 41 l 0
 397 -10 l 0
 371 -10 l 0
 371 125 l 1
 379.215820312 124.51953125 318.701171875 -12.4462890625 202 -11 c 0
 75.009765625 -9.4267578125 33.990234375 89 32 191 c 0
 28 396 166.973632812 476 242 476 c 3
 306 476 337 445 371 398 c 0
 371 270 l 1
 371 356 301 438 242 435 c 0
 191.065429688 432.41015625 124 387.050008027 124 228 c 0
 124 64 217.507475074 37.1004835048 260 50 c 0
 316 67 355 133 371 163 c 1
 371 163 371 207.87109375 371 246 c 2
 371 633 l 0
 369.875 653.404296875 353.068359375 671.51171875 313 657 c 0
 312.915039062 680 l 1
EndSplineSet
Validated: 37
EndChar

StartChar: ZLM_SE
Encoding: 114 926578 86
Width: 527
VWidth: 0
GlyphClass: 2
Flags: W
HStem: -11 487<148.969 286.643> 559.999 50.001<126 240.294>
VStem: 13.9951 92<116.627 322.01> 352.995 100<64.4321 119.369 126.922 353.979 398 629>
LayerCount: 2
Fore
SplineSet
126 559.999023438 m 1
 126 610 l 3
 266.104492188 610 398.270731485 707.289802147 430.995117188 725 c 1
 452.995117188 725 l 1
 452.995117188 291 l 2
 452.995117188 203.07421875 452.995117188 100 452.995117188 100 c 2
 452.995117188 58.54296875 476.995117188 62 499.995117188 67 c 1
 505.995117188 41 l 1
 378.995117188 -10 l 1
 352.995117188 -10 l 1
 352.995117188 119.369031817 l 1
 345.821968375 93.5400410194 286.64325385 -12.2721284196 183.995117188 -11 c 0
 57.0048828125 -9.4267578125 15.9853515625 89 13.9951171875 191 c 0
 9.9951171875 396 148.96875 476 223.995117188 476 c 0
 287.995117188 476 318.995117188 445 352.995117188 398 c 1
 353 629 l 1
 353 629 245.08984375 563.999023438 126 559.999023438 c 1
352.995117188 270 m 2
 352.995117188 356 282.995117188 438 223.995117188 435 c 0
 173.060546875 432.41015625 105.995117188 387.049804688 105.995117188 228 c 0
 105.995117188 64 199.501953125 37.1005859375 241.995117188 50 c 0
 297.995117188 67 336.995117188 133 352.995117188 163 c 1
 352.995117188 163 352.995117188 207.87109375 352.995117188 246 c 2
 352.995117188 270 l 2
EndSplineSet
Validated: 33
LCarets2: 1 0
Ligature2: "'rlig' Required Ligatures lookup 473 subtable" ZLM_S ZLM_DIACRITIC_E
Ligature2: "'rlig' Required Ligatures lookup 311 subtable" ZLM_S ZLM_DIACRITIC_E
Ligature2: "'rlig' Required Ligatures lookup 149 subtable" ZLM_S ZLM_DIACRITIC_E
EndChar

StartChar: ZLM_SO
Encoding: 116 926580 88
Width: 527
VWidth: 0
GlyphClass: 2
Flags: W
HStem: -11 487<148.969 286.643> 561 61<204.342 278.748> 601 57<125.152 204.342>
VStem: 13.9951 92<116.627 322.01> 97.9951 21<560 589.67> 352.995 100<64.4321 119.369 126.922 353.979 398 664>
LayerCount: 2
Fore
SplineSet
97.9951171875 560 m 1xac
 97.9951171875 590 100.310546875 614.366210938 113.995117188 635 c 0
 125.93359375 653 138.293945312 658 163.995117188 658 c 0xac
 181.995117188 658 190.4296875 649.854492188 221.995117188 635 c 0
 238.995117188 627 252.995117188 622 262.995117188 622 c 0
 272.995117188 622 278.995117188 624 283.995117188 629 c 0
 299.995117188 645 308.026242097 656.006012787 335 678 c 0
 374.499174138 710.207018913 429 725 429 725 c 1
 452.995117188 725 l 1
 452.995117188 291 l 2
 452.995117188 203.07421875 452.995117188 100 452.995117188 100 c 2
 452.995117188 58.54296875 476.995117188 62 499.995117188 67 c 1
 505.995117188 41 l 1
 378.995117188 -10 l 1
 352.995117188 -10 l 1
 352.995117188 119.369031817 l 1
 345.821968375 93.5400410194 286.64325385 -12.2721284196 183.995117188 -11 c 0
 57.0048828125 -9.4267578125 15.9853515625 89 13.9951171875 191 c 0
 9.9951171875 396 148.96875 476 223.995117188 476 c 0
 287.995117188 476 318.995117188 445 352.995117188 398 c 1
 353 664 l 2
 353.000046537 666.535164506 336.059570312 657.955078125 310 628 c 0
 284.39453125 598.567382812 274 561 249.995117188 561 c 0xd4
 235 561 224.08203125 569.165039062 193.995117188 585 c 0
 174.995117188 595 159.995117188 601 151.995117188 601 c 0
 141.995117188 601 133.995117188 597 127.995117188 590 c 0
 121.995117188 583 118.995117188 573 118.995117188 560 c 1
 97.9951171875 560 l 1xac
352.995117188 270 m 2
 352.995117188 356 282.995117188 438 223.995117188 435 c 0
 173.060546875 432.41015625 105.995117188 387.049804688 105.995117188 228 c 0x94
 105.995117188 64 199.501953125 37.1005859375 241.995117188 50 c 0
 297.995117188 67 336.995117188 133 352.995117188 163 c 1
 352.995117188 163 352.995117188 207.87109375 352.995117188 246 c 2
 352.995117188 270 l 2
EndSplineSet
Validated: 33
LCarets2: 1 0
Ligature2: "'rlig' Required Ligatures lookup 473 subtable" ZLM_S ZLM_DIACRITIC_O
Ligature2: "'rlig' Required Ligatures lookup 311 subtable" ZLM_S ZLM_DIACRITIC_O
Ligature2: "'rlig' Required Ligatures lookup 149 subtable" ZLM_S ZLM_DIACRITIC_O
EndChar

StartChar: ZLM_SY
Encoding: 118 926582 90
Width: 527
VWidth: 0
GlyphClass: 2
Flags: W
HStem: 621 75<176.39 235.355>
VStem: 13.9951 92<116.627 322.01> 175 67<623.836 655.632> 352.995 100<64.4321 100 100.075 119.369 126.922 353.979>
LayerCount: 2
Fore
SplineSet
324 692 m 1
 306.019998692 606.84032683 221.144571091 512 161 590 c 0
 123.392890861 638.771725522 172 691 175 655 c 0
 175.446239159 649.645130087 173.930664062 621 203 621 c 3
 238.9765625 621 242 646.780455543 242 656 c 3
 242 668.041594579 231 696 182 696 c 3
 141.987304688 696 104 668 104 619 c 3
 104 573.98889026 128 539 194 539 c 3
 272 539 341.153846154 610 353 654 c 1
 352.995117188 398 l 1
 318.995117188 445 287.995117188 476 223.995117188 476 c 0
 148.96875 476 9.9951171875 396 13.9951171875 191 c 0
 15.9853515625 89 57.0048828125 -9.4267578125 183.995117188 -11 c 0
 286.64325385 -12.2721284196 345.821968375 93.5400410194 352.995117188 119.369031817 c 1
 352.995117188 -10 l 1
 378.995117188 -10 l 1
 505.995117188 41 l 1
 499.995117188 67 l 1
 476.995117188 62 452.995117188 58.54296875 452.995117188 100 c 2
 452.995117188 100 452.994148061 203.074670881 452.995117188 291 c 2
 453 734 l 1
 435 734 l 1
 324 692 l 1
352.995117188 270 m 2
 352.995117188 246 l 2
 352.995117188 207.87109375 352.995117188 163 352.995117188 163 c 1
 336.995117188 133 297.995117188 67 241.995117188 50 c 0
 199.501953125 37.1005859375 105.995117188 64 105.995117188 228 c 0
 105.995117188 387.049804688 173.060546875 432.41015625 223.995117188 435 c 0
 282.995117188 438 352.995117188 356 352.995117188 270 c 2
EndSplineSet
Validated: 41
LCarets2: 1 0
Ligature2: "'rlig' Required Ligatures lookup 473 subtable" ZLM_S ZLM_DIACRITIC_Y
Ligature2: "'rlig' Required Ligatures lookup 311 subtable" ZLM_S ZLM_DIACRITIC_Y
Ligature2: "'rlig' Required Ligatures lookup 149 subtable" ZLM_S ZLM_DIACRITIC_Y
EndChar

StartChar: ZLM_BAHEBU_3
Encoding: 127 926591 95
Width: 368
VWidth: 0
GlyphClass: 2
Flags: W
HStem: -301 120<47.7454 140.255 227.745 320.255> -151 120<137.745 230.255>
VStem: 34 120<-287.255 -194.745> 124 120<-137.255 -44.7454> 214 120<-287.255 -194.745>
LayerCount: 2
Fore
SplineSet
214 -241 m 0xc8
 214 -208 241 -181 274 -181 c 0
 307 -181 334 -208 334 -241 c 0
 334 -274 307 -301 274 -301 c 0
 241 -301 214 -274 214 -241 c 0xc8
34 -241 m 0xe0
 34 -208 61 -181 94 -181 c 0
 127 -181 154 -208 154 -241 c 0
 154 -274 127 -301 94 -301 c 0
 61 -301 34 -274 34 -241 c 0xe0
124 -91 m 0xd0
 124 -58 151 -31 184 -31 c 0
 217 -31 244 -58 244 -91 c 0
 244 -124 217 -151 184 -151 c 0
 151 -151 124 -124 124 -91 c 0xd0
EndSplineSet
Validated: 1
EndChar

StartChar: ZLM_C
Encoding: 128 926592 96
Width: 539
VWidth: 0
GlyphClass: 2
Flags: W
HStem: 0 20<28 57.1443 195.913 234 328 355.074 489.463 515> 422 23<32 50.2> 674 21<332 353.033>
VStem: 78 100<29.3374 354.208 370 426.148> 378 100<30.3718 235 419 676.32> 378 0<235 432>
LayerCount: 2
Fore
SplineSet
328 0 m 1xf8
 328 21 l 0
 349 22 378 37 378 72 c 2
 378 627 l 2
 377 683 354 680 332 674 c 0
 322 695 l 1
 455 725 l 0
 478 725 l 1
 478 68 l 0
 478 28 498 20 515 20 c 0
 515 0 l 1
 328 0 l 1xf8
378 235 m 1
 383.472222222 432 292.73990528 475.23713418 178 329 c 1
 178 243 178 71 178 71 c 1
 177.401367188 34.126953125 200.028320312 21.212890625 234 20 c 0
 234 0 l 1
 28 0 l 1
 28 20 l 0
 51.5361328125 20.77734375 78 41 78 62 c 0
 78 71 l 1
 78 234 l 1
 78 404 l 0
 78 433 54 427 32 422 c 0
 24 445 l 1
 155 480 l 0
 178 480 l 1
 178 370 l 1
 219 431 255.122901307 481.57986063 307 478 c 0
 335.044677375 476.064733014 365.29243465 471.870933695 378 419 c 1
 378 235 l 1
EndSplineSet
Validated: 37
EndChar

StartChar: ZLM_M
Encoding: 144 926608 108
Width: 500
VWidth: 0
GlyphClass: 2
Flags: W
HStem: 0 80<150 435>
LayerCount: 2
Fore
SplineSet
359 240 m 2
 150 80 l 2
 387 80 l 0
 437 80 449 100 458 116 c 0
 471 116 l 1
 435 0 l 1
 50 0 l 1
 50 22 l 2
 251 191 l 2
 402.62235869 318.483475715 308.001953125 415.131835938 270 427 c 0
 239.155273438 436.6328125 197.471825339 450.643313734 117 402 c 0
 88.5517578125 384.803710938 82.216796875 369.750976562 63 331 c 0
 46 333 l 1
 50 472 l 1
 73 474 l 1
 76.564453125 476.967773438 91.66015625 429.049812479 124 451 c 0
 201.223480081 503.414287525 366.87068847 508.742997344 424 429 c 0
 472 362 426.191564668 291.438518406 359 240 c 2
EndSplineSet
Validated: 33
EndChar

StartChar: ZLM_X
Encoding: 160 926624 120
Width: 500
VWidth: 0
GlyphClass: 2
Flags: W
HStem: -10 490<127.745 392.706>
VStem: 13.5059 476<98 371.997>
LayerCount: 2
Fore
SplineSet
115.505859375 210 m 0
 131.11328125 107.177734375 206.505859375 20 291.505859375 38 c 0
 378.849609375 56.49609375 406.505859375 166 384.505859375 277 c 0
 364.286132812 379.015625 314.159179688 459.440429688 221.505859375 442 c 0
 136.505859375 426 98.505859375 322 115.505859375 210 c 0
13.505859375 235 m 4
 14.37890625 371.997070312 127.745117188 480 260.225585938 480 c 0
 392.706054688 480 489.505859375 372 489.505859375 235 c 4
 489.505859375 98 392.706054688 -10 260.225585938 -10 c 0
 127.745117188 -10 12.5380859375 83 13.505859375 235 c 4
EndSplineSet
Validated: 33
EndChar

StartChar: ZLM_B
Encoding: 176 926640 132
Width: 475
VWidth: 0
GlyphClass: 2
Flags: W
HStem: -255 21<249 295.656 416.908 451> 0 19<24 46.0446 157.926 181> 448 22<415.255 451>
VStem: 300.137 100.863<-227.117 402.202>
LayerCount: 2
Fore
SplineSet
451 -255 m 1
 383.651367188 -255 316.303710938 -255 248.955078125 -255 c 1
 249 -234 l 3
 295 -234 300.13671875 -231.01171875 300.13671875 -196 c 0
 300 404 l 0
 150 343 146 128 151 52 c 1
 148.8671875 33.3330078125 159 21 181 19 c 1
 181 0 l 1
 24 0 l 1
 24 21 l 3
 48 21 52.2705078125 32 59.185546875 68 c 2
 59.185546875 68 76.849609375 180.086914062 88 218 c 0
 121.947265625 333.420898438 196 470 353 470 c 0
 353 470 417.454101562 470 451 470 c 1
 451 448 l 0
 427 447 401 442 401 396 c 0
 401 -167 l 3
 401 -204 405 -233 451 -233 c 0
 451 -255 l 1
EndSplineSet
Validated: 33
EndChar

StartChar: ZLM_D
Encoding: 192 926656 144
Width: 549
VWidth: 0
GlyphClass: 2
Flags: W
HStem: -255 19<325 354.332 495.42 525> -10 80<151.5 258.403> 450 20<24 60.25 316 356.625>
VStem: 75 99<98.8532 443.867> 374 100<-227.083 132 143.03 442.296>
LayerCount: 2
Fore
SplineSet
474 470 m 1
 475 -189 l 1
 475 -209 489.161132812 -235 525 -235 c 0
 525 -255 l 0
 427 -255 l 0
 325 -255 l 0
 325 -236 l 3
 358 -236 375 -207 375 -191 c 3
 375 -83 374 132 374 132 c 1
 300 32 245 -10 190 -10 c 0
 113 -10 75.736328125 46.994140625 75 203 c 2
 74 415 l 0
 74 438 54 448 24 449 c 0
 24 470 l 1
 174 470 l 9
 174 202 l 1
 174 149 187 70 239 70 c 0
 292 70 337 128 374 166 c 0
 374 412 l 0
 374 436 347 450 316 450 c 0
 316 470 l 1
 474 470 l 1
EndSplineSet
Validated: 1
EndChar

StartChar: ZLM_G
Encoding: 208 926672 156
Width: 502
VWidth: 0
GlyphClass: 2
Flags: W
HStem: -255 18<273 303.077 448.847 477> 0 23<27 69.5483 188.376 232.674> 414 56<293.322 328> 435 22<28 64.7826> 452 18<447.561 478>
VStem: 77 100<27.8639 300.255 304 437.961> 327.107 100.893<-226.931 413.405>
LayerCount: 2
Fore
SplineSet
477 -255 m 5xce
 352 -255 l 4
 272.970703125 -255 l 5
 273 -236 l 7
 310 -236 327.024414062 -209 327.107421875 -185 c 4
 327.893554688 41.9990234375 328 414 328 414 c 4xe6
 264 412 208.758705148 333.484220501 177 258 c 5
 177 70 l 7
 177 25.4970703125 203 24 232.673828125 23 c 4
 233 0 l 5
 27 0 l 5
 27 20 l 7
 47.5791015625 20 77 29 77 52 c 31
 77 185 77 404 77 404 c 4
 77 446 54 439 28 435 c 4
 24 457 l 5xd6
 158 480 l 4
 177 480 l 5
 177 304 l 5
 207.74609375 391.427734375 284 470.157489468 370 470 c 4
 370 470 444.454101562 470 478 470 c 5
 478 452 l 4
 456 452 428 437 428 411 c 4
 428 -182 l 4
 428 -210 443.758789062 -237 477 -237 c 4
 477 -255 l 5xce
EndSplineSet
Validated: 33
EndChar

StartChar: ZLM_V
Encoding: 224 926688 167
Width: 517
VWidth: 0
GlyphClass: 2
Flags: W
HStem: 0 80<153 465> 450 20<197 234.574>
VStem: 244 100<229.874 447.479>
LayerCount: 2
Fore
SplineSet
153 80 m 1
 404 80 l 3
 442.708984375 80 459.770507812 79.0634765625 479 127 c 0
 493 127 l 1
 465 0 l 1
 24 0 l 1
 24 28 l 1
 24 28 244 128 244 253 c 26
 244 407 l 3
 244 444 229 450 197 450 c 1
 197 470 l 1
 230.333007812 470 310.666992188 470 344 470 c 1
 344 425 344 412.61328125 344 318 c 3
 344 153 153 80 153 80 c 1
EndSplineSet
Validated: 33
EndChar

StartChar: ZLM_R
Encoding: 240 926704 178
Width: 472
VWidth: 0
GlyphClass: 2
Flags: W
HStem: -10 64<124.457 247.016>
VStem: 39.1006 24.2998<319 359.977> 348.5 99.4004<155.767 347.272>
LayerCount: 2
Fore
SplineSet
39.1005859375 319 m 1
 63.400390625 315 l 0
 67.1269513216 378.134166572 126.690383306 451.257897668 219 452 c 0
 252.867069667 452.272266664 294.538540327 429 321 386 c 0
 346.229492188 345.001953125 348.215799623 292.408476226 348.5 235 c 0
 348.95049505 144 265 56.7381273288 173 54 c 0
 114.106441602 52.2471949811 59.6029054626 95.3451425722 46.5 151 c 1
 24 144 l 1
 67.2001953125 51 105 -10 216.600585938 -10 c 0
 359.700195312 -10 447.900390625 98 447.900390625 235 c 0
 447.900390625 372 367.044921875 479.108398438 243 486 c 0
 171 490 108.700195312 443 93.400390625 443 c 0
 84.400390625 443 74.5 470 74.5 470 c 1
 44.7001953125 470 l 1
 39.1005859375 319 l 1
EndSplineSet
Validated: 41
EndChar

StartChar: ZLM_Z
Encoding: 256 926720 189
Width: 551
VWidth: 0
GlyphClass: 2
Flags: W
HStem: -255 25<23.915 64.2638 200.279 243.915> -6 496<257.915 391.941>
VStem: 80.915 100<-219.817 72 179 365.112 377 407.901> 437.915 89<147.984 349.6>
LayerCount: 2
Fore
SplineSet
243.915039062 -255 m 1
 98.9150390625 -255 l 0
 23.9150390625 -255 l 1
 23.9150390625 -230 l 0
 57.51953125 -229.022460938 78.9072265625 -220.852539062 80.9150390625 -166 c 0
 80.9150390625 179 l 2
 80.9150390625 266.92578125 80.9150390625 380 80.9150390625 380 c 1
 87.2099609375 420.9765625 56.9150390625 407 33.9150390625 402 c 0
 27.9150390625 428 l 0
 159.915039062 480 l 0
 180.915039062 480 l 0
 180.915039062 377 l 1
 180.915039062 377 257.915039062 490 349.915039062 490 c 0
 476.915039062 490 524.924804688 381 526.915039062 279 c 0
 530.915039062 74 391.94140625 -6 316.915039062 -6 c 3
 252.915039062 -6 214.915039062 25 180.915039062 72 c 0
 180.915039062 200 l 1
 180.915039062 114 250.915039062 32 309.915039062 35 c 0
 360.849609375 37.58984375 435.172851562 72.9736328125 437.915039062 232 c 0
 440.915039062 406 335.915039062 426 291.915039062 420 c 0
 249.877929688 414.267578125 209.915039062 381 180.915039062 339 c 1
 180.915039062 339 180.915039062 262.12890625 180.915039062 224 c 2
 180.915039062 -163 l 3
 180.915039062 -208.177734375 197.915039062 -230 243.915039062 -230 c 0
 243.915039062 -255 l 1
EndSplineSet
Validated: 37
EndChar

StartChar: ZLM_J
Encoding: 272 926736 200
Width: 552
VWidth: 0
GlyphClass: 2
Flags: W
HStem: -255 19<24 49.4501 192.956 219> 25 23<501.8 520> 450 20<37 62.5367 318 356.087>
VStem: 74 100.3<-224.358 447.257> 374 100<43.8516 100 118.994 441.906>
LayerCount: 2
Fore
SplineSet
174 470 m 17
 174.299747911 218 l 2
 174 70 l 2
 174 -96 l 0
 174 -102 l 0
 174 -167 l 0
 174 -223.008789062 196.196289062 -235 219 -235 c 0
 219 -255 l 1
 24 -255 l 0
 24 -236 l 3
 50.0732421875 -236 74.892578125 -209.4375 74 -165 c 1
 74 402 l 0
 74 442 54 450 37 450 c 0
 37 470 l 1
 174 470 l 17
174.299804688 218 m 2
 170.421875 11.2177734375 279 16 374 141 c 1
 374 227 374 399 374 399 c 1
 374.598632812 435.873046875 351.971679688 448.787109375 318 450 c 0
 318 470 l 1
 474 470 l 25
 474 399 l 1
 474 236 l 1
 474 66 l 0
 474 37 498 43 520 48 c 0
 528 25 l 1
 397 -10 l 0
 374 -10 l 1
 374 100 l 1
 333 39 297 -8 245 -8 c 3
 220.868164062 -8 173.719726562 0 174 34 c 0
 174.299804688 218 l 2
EndSplineSet
Validated: 37
EndChar

StartChar: ZLM_N
Encoding: 288 926752 211
Width: 500
VWidth: 0
Flags: W
HStem: -9 27<199.078 315.152> 436 34<64.6247 327>
VStem: 25 22<354 408.496>
LayerCount: 2
Fore
SplineSet
106 258 m 0
 327 436 l 1
 100 436 l 0
 50 436 48 377 47 354 c 0
 25 354 l 1
 25 470 l 1
 475 470 l 1
 475 448 l 6
 196 208 l 6
 84.9445367462 112.468418706 175 18 248 18 c 3
 380 18 332.717773438 111 394 111 c 3
 422 111 442.176757812 86 442 60 c 0
 441.713867188 18 300 -9 246 -9 c 3
 184 -9 111.613054766 -0.234577822313 72 44 c 0
 12 111 42.724609375 208.752929688 106 258 c 0
EndSplineSet
Validated: 33
EndChar

StartChar: ZLM_SEMIVOWEL_W
Encoding: 320 926784 233
Width: 598
VWidth: 0
Flags: W
HStem: 0 21G<265.532 335.569> 442 28<24 83.0658 196.887 248 404 470.817 517.995 574>
LayerCount: 2
Fore
SplineSet
333.5 92.3251953125 m 1
 469.06640625 402 l 2
 487.262695312 444 444.544921875 439.53125 404 440 c 0
 403 470 l 1
 574 470 l 1
 574 440 l 19
 537.229492188 440 516.370117188 441.984375 496.66796875 396 c 2
 327 0 l 1
 274 0 l 2
 102.09765625 406 l 0
 82.0244140625 441.931640625 52 442 24 442 c 0
 24 470 l 1
 248 470 l 1
 248.212890625 442 l 3
 228 442 183.685546875 447.239257812 199.532226562 410 c 2
 333.5 92.3251953125 l 1
EndSplineSet
Validated: 33
EndChar

StartChar: ZLM_DIACRITIC_A
Encoding: 336 926800 244
Width: 130
VWidth: 0
GlyphClass: 2
Flags: W
HStem: 106 159
VStem: 15 136
LayerCount: 2
Fore
SplineSet
15 106 m 1
 63 265 l 1
 151 265 l 1
 30 106 l 1
 15 106 l 1
EndSplineSet
Validated: 1
Substitution2: "Single Substitution lookup 476 subtable" ZLM_DOT_A
Substitution2: "Single Substitution lookup 314 subtable" ZLM_DOT_A
Substitution2: "Single Substitution lookup 152 subtable" ZLM_DOT_A
EndChar

StartChar: ZLM_DIACRITIC_E
Encoding: 352 926816 255
Width: 292
VWidth: 0
GlyphClass: 2
Flags: W
HStem: 213 46<26 266>
VStem: 26 240<213 259>
LayerCount: 2
Fore
SplineSet
26 213 m 1
 26 259 l 1
 266 259 l 1
 266 213 l 1
 26 213 l 1
EndSplineSet
Validated: 1
Substitution2: "Single Substitution lookup 477 subtable" ZLM_DOT_E
Substitution2: "Single Substitution lookup 315 subtable" ZLM_DOT_E
Substitution2: "Single Substitution lookup 153 subtable" ZLM_DOT_E
EndChar

StartChar: ZLM_DIACRITIC_I
Encoding: 368 926832 266
Width: 164
VWidth: 0
GlyphClass: 2
Flags: W
HStem: 183.557 102.887<40.0813 123.919>
VStem: 30.5576 102.886<193.081 276.919>
LayerCount: 2
Fore
SplineSet
30.5576171875 235 m 0
 30.5576171875 263.29296875 53.70703125 286.443359375 82 286.443359375 c 0
 110.29296875 286.443359375 133.443359375 263.29296875 133.443359375 235 c 0
 133.443359375 206.70703125 110.29296875 183.556640625 82 183.556640625 c 0
 53.70703125 183.556640625 30.5576171875 206.70703125 30.5576171875 235 c 0
EndSplineSet
Validated: 1
Substitution2: "Single Substitution lookup 478 subtable" ZLM_DOT_I
Substitution2: "Single Substitution lookup 316 subtable" ZLM_DOT_I
Substitution2: "Single Substitution lookup 154 subtable" ZLM_DOT_I
EndChar

StartChar: ZLM_DIACRITIC_O
Encoding: 384 926848 277
Width: 265
VWidth: 0
GlyphClass: 2
Flags: W
HStem: 185 50<149.646 221.191> 230 52<43.2546 122.012>
VStem: 25 9<184 203.398> 232 8<262.047 283>
LayerCount: 2
Fore
SplineSet
25 184 m 1x70
 25 246 43.9893629058 282 91 282 c 3x70
 114.021728866 282 177.993164062 235 198 235 c 0
 221 235 229 253 232 283 c 1
 240 283 l 3
 240 224.687710393 221 185 177 185 c 3xb0
 157.47400586 185 91.3935546875 230 69 230 c 0
 45 230 39 216 34 184 c 1
 25 184 l 1x70
EndSplineSet
Validated: 1
Substitution2: "Single Substitution lookup 479 subtable" ZLM_DOT_O
Substitution2: "Single Substitution lookup 317 subtable" ZLM_DOT_O
Substitution2: "Single Substitution lookup 155 subtable" ZLM_DOT_O
EndChar

StartChar: ZLM_DIACRITIC_U
Encoding: 400 926864 288
Width: 297
VWidth: 0
GlyphClass: 2
Flags: W
HStem: 174 50<78.3137 215.597>
VStem: 38 220
LayerCount: 2
Fore
SplineSet
258 280 m 0
 245 279 l 0
 228 240 197.009765625 224 146 224 c 3
 100.989257812 224 66 240 50 279 c 1
 38 280 l 0
 38 219 84 174 146 174 c 3
 209 174 258 218 258 280 c 0
EndSplineSet
Validated: 9
Substitution2: "Single Substitution lookup 480 subtable" ZLM_DOT_U
Substitution2: "Single Substitution lookup 318 subtable" ZLM_DOT_U
Substitution2: "Single Substitution lookup 156 subtable" ZLM_DOT_U
EndChar

StartChar: ZLM_DIACRITIC_Y
Encoding: 416 926880 299
Width: 244
VWidth: 0
GlyphClass: 2
Flags: W
HStem: 145.895 32.3555<83.0038 161.318> 291.65 31.4551<84.3773 160.064>
VStem: 34.6797 32.2197<194.83 273.316> 178.5 30.4199<197.696 272.059>
LayerCount: 2
Fore
SplineSet
121.799804688 145.89453125 m 0
 72.2880859375 145.89453125 34.6796875 185.908203125 34.6796875 235.985351562 c 0
 34.6796875 283.092773438 74.6943359375 323.10546875 121.799804688 323.10546875 c 0
 169.428710938 323.10546875 208.919921875 281.895507812 208.919921875 234.004882812 c 0
 208.919921875 185.231445312 169.9609375 145.89453125 121.799804688 145.89453125 c 0
122.700195312 291.650390625 m 0
 91.2001953125 291.650390625 67.8564453125 266.450195312 66.8994140625 235.849609375 c 0
 65.8310546875 201.650390625 91.2001953125 178.25 122.700195312 178.25 c 256
 154.200195312 178.25 177.6484375 203.450195312 178.5 234.950195312 c 256
 179.302734375 264.650390625 154.200195312 291.650390625 122.700195312 291.650390625 c 0
EndSplineSet
Validated: 33
Substitution2: "Single Substitution lookup 481 subtable" ZLM_DOT_Y
Substitution2: "Single Substitution lookup 319 subtable" ZLM_DOT_Y
Substitution2: "Single Substitution lookup 157 subtable" ZLM_DOT_Y
EndChar

StartChar: ZLM_DIACRITIC_OI
Encoding: 464 926928 332
Width: 298
VWidth: 0
GlyphClass: 2
Flags: W
HStem: 128 61<166.032 241.007>
VStem: 254 20<202.869 226>
LayerCount: 2
Fore
SplineSet
132 331 m 1
 182 331 l 1
 172.774414062 314.99609375 107 201 107 201 c 1
 135 235 157 217 166 211 c 0
 180.814453125 201.124023438 197 189 207 189 c 0
 217 189 234 191 239 196 c 0
 244 201 252 210 254 226 c 1
 274 226 l 1
 273 192 260 162 244 145 c 0
 228 128 221 128 197 128 c 0
 179 128 166.048828125 140.80078125 138 161 c 0
 132.147460938 165.21484375 120 177 110 177 c 0
 95.595703125 177 80.4384765625 152.741210938 74 136 c 1
 25 136 l 2
 24 136 l 1
 132 331 l 1
EndSplineSet
Validated: 33
Substitution2: "Single Substitution lookup 484 subtable" ZLM_DOT_OI
Ligature2: "'rlig' Required Ligatures lookup 474 subtable" ZLM_DIACRITIC_O ZLM_DIACRITIC_I
Substitution2: "Single Substitution lookup 322 subtable" ZLM_DOT_OI
Ligature2: "'rlig' Required Ligatures lookup 312 subtable" ZLM_DIACRITIC_O ZLM_DIACRITIC_I
Substitution2: "Single Substitution lookup 160 subtable" ZLM_DOT_OI
Ligature2: "'rlig' Required Ligatures lookup 150 subtable" ZLM_DIACRITIC_O ZLM_DIACRITIC_I
EndChar

StartChar: ZLM_DIACRITIC_AU
Encoding: 480 926944 343
Width: 187
VWidth: 0
GlyphClass: 2
Flags: W
HStem: 133 222
VStem: 110 40<210.624 269.197>
LayerCount: 2
Fore
SplineSet
24.0703125 307.44140625 m 3
 24.0703125 327.000126385 34 355 81 355 c 3
 117 355 150 320.5625 150 268 c 3
 150 208.999023438 81.669921875 146.3984375 41.669921875 133 c 1
 43.669921875 156 l 1
 43.669921875 156 100.831054688 190.451171875 110 238 c 0
 112.423828125 250.572265625 112.999948521 285.23347439 92 271 c 0
 72 257.444276875 24.0703125 258.999948971 24.0703125 307.44140625 c 3
EndSplineSet
Validated: 33
LCarets2: 1 0
Substitution2: "Single Substitution lookup 485 subtable" ZLM_DOT_AU
Ligature2: "'rlig' Required Ligatures lookup 474 subtable" ZLM_DIACRITIC_A ZLM_DIACRITIC_U
Substitution2: "Single Substitution lookup 323 subtable" ZLM_DOT_AU
Ligature2: "'rlig' Required Ligatures lookup 312 subtable" ZLM_DIACRITIC_A ZLM_DIACRITIC_U
Substitution2: "Single Substitution lookup 161 subtable" ZLM_DOT_AU
Ligature2: "'rlig' Required Ligatures lookup 150 subtable" ZLM_DIACRITIC_A ZLM_DIACRITIC_U
EndChar

StartChar: ZLM_CAS_ISO
Encoding: 496 926960 354
Width: 403
VWidth: 0
GlyphClass: 2
Flags: W
HStem: 0 22<215.952 246.383 350.469 378.952> 246 145<42.5679 106.705> 447 23<347.839 375.952>
VStem: 255.952 80<27.5957 414>
LayerCount: 2
Fore
SplineSet
82 391 m 3
 136 391 140.072265625 324.458984375 110 302 c 1
 211 321.836914062 255.952148438 470 255.952148438 470 c 1
 375.952148438 470 l 1
 375.952148438 447 l 3
 349.098632812 447 335.952148438 426 335.952148438 403 c 16
 335.952148438 66 l 3
 335.952148438 50 346.952148438 22 378.952148438 22 c 0
 378.952148438 0 l 1
 215.952148438 0 l 1
 215.952148438 20 l 3
 246.952148438 20 255.952148438 42 255.952148438 66 c 3
 255.952148438 190 255.952148438 414 255.952148438 414 c 1
 255.952148438 414 181.952148438 246 98.9521484375 246 c 3
 55.9521484375 246 24 273 24 312.744140625 c 3
 24 370 57 391 82 391 c 3
EndSplineSet
Validated: 33
EndChar

StartChar: ZLM_FULL_A
Encoding: 497 926961 355
Width: 549
VWidth: 1024
GlyphClass: 2
Flags: W
HStem: 0 21G<25 125> 390 80<125 525>
VStem: 25 100<0 390>
LayerCount: 2
Fore
SplineSet
125 0 m 1
 25 0 l 1
 25 156.666992188 25 313.333007812 25 470 c 1
 191.666992188 470 358.333007812 470 525 470 c 1
 525 390 l 1
 125 390 l 1
 125 0 l 1
EndSplineSet
Validated: 1
EndChar

StartChar: ZLM_FULL_E
Encoding: 498 926962 356
Width: 551
VWidth: 1024
GlyphClass: 2
Flags: W
HStem: 0 21G<25 125> 195 80<125 526>
VStem: 25 100<0 195 275 470>
LayerCount: 2
Fore
SplineSet
125 0 m 1
 25 0 l 1
 25 470 l 1
 125 470 l 1
 125 275 l 1
 526 275 l 1
 526 195 l 1
 392.333007812 195 258.666992188 195 125 195 c 1
 125 0 l 1
EndSplineSet
Validated: 1
EndChar

StartChar: ZLM_FULL_I
Encoding: 499 926963 357
Width: 551
VWidth: 1024
GlyphClass: 2
Flags: W
HStem: 0 21G<25 125 425 525> 390 80<125 425 525 526>
VStem: 25 100<0 390> 425 100<0 390>
LayerCount: 2
Fore
SplineSet
125 0 m 1
 25 0 l 1
 25 470 l 1
 526 470 l 1
 526 390 l 1
 525 390 l 1
 525 0 l 1
 425 0 l 1
 425 390 l 1
 325 390 225 390 125 390 c 1
 125 0 l 1
EndSplineSet
Validated: 1
EndChar

StartChar: ZLM_FULL_O
Encoding: 500 926964 358
Width: 549
VWidth: 1024
GlyphClass: 2
Flags: W
HStem: 0 80<24 424>
VStem: 424 100<80 470>
LayerCount: 2
Fore
SplineSet
524 0 m 1
 24 0 l 1
 24 80 l 1
 424 80 l 1
 424 470 l 1
 524 470 l 1
 524 313.333007812 524 156.666992188 524 0 c 1
EndSplineSet
Validated: 1
EndChar

StartChar: ZLM_FULL_U
Encoding: 501 926965 359
Width: 550
VWidth: 1024
GlyphClass: 2
Flags: W
HStem: 0 80<125 425>
VStem: 25 100<80 470> 425 100<80 470>
LayerCount: 2
Fore
SplineSet
25 0 m 1
 25 470 l 1
 58 470 92 470 125 470 c 1
 125 80 l 1
 425 80 l 1
 425 470 l 1
 458 470 492 470 525 470 c 1
 525 313 525 157 525 0 c 1
 25 0 l 1
EndSplineSet
Validated: 1
EndChar

StartChar: ZLM_FULL_Y
Encoding: 502 926966 360
Width: 550
VWidth: 1024
GlyphClass: 2
Flags: W
HStem: 0 21G<226 325> 195 80<25 225 325 525>
VStem: 226 99<0 195 275 470>
LayerCount: 2
Fore
SplineSet
325 0 m 1
 226 0 l 1
 226 195 l 1
 25 195 l 1
 25 275 l 1
 225 275 l 1
 225 470 l 1
 325 470 l 1
 325 275 l 1
 525 275 l 1
 525 195 l 1
 325 195 l 1
 325 0 l 1
EndSplineSet
Validated: 1
EndChar

StartChar: ZLM_FULL_AI
Encoding: 503 926967 361
Width: 550
VWidth: 1024
GlyphClass: 2
Flags: W
HStem: 0 80<125 525> 390 80<125 525>
VStem: 25 100<80 390>
LayerCount: 2
Fore
SplineSet
125 390 m 1
 125 80 l 1
 525 80 l 1
 525 0 l 1
 25 0 l 1
 25 470 l 1
 525 470 l 1
 525 390 l 1
 125 390 l 1
EndSplineSet
Validated: 1
EndChar

StartChar: ZLM_FULL_EI
Encoding: 504 926968 362
Width: 566
VWidth: 1024
GlyphClass: 2
Flags: W
HStem: -5 62<181.965 398.429> 414 62<168.695 384.035>
VStem: 24 108<99.7867 149 308.904 383.018> 434 108<87.7838 161.402 322 371.213>
LayerCount: 2
Fore
SplineSet
438 322 m 1
 425 388 363 414 276 414 c 0
 227 414 192 407 168 393 c 0
 144 379 132 362 132 343 c 0
 132 313 163 301 196 293 c 1
 197 293 l 1
 263 276 389 257 447 239 c 0
 497 224 542 194 542 135 c 0
 542 110 532 87 511 65 c 0
 468 19 384 -5 291 -5 c 0
 145 -5 30 44 24 149 c 1
 128 149 l 1
 141 83 203 57 290 57 c 0
 339 57 374 64 398 78 c 0
 422 92 434 108 434 127 c 0
 434 157 403 170 370 178 c 1
 369 177 l 1
 303 194 177 214 119 232 c 0
 69 247 24 276 24 335 c 0
 24 360 34 384 55 406 c 0
 98 452 182 476 275 476 c 0
 421 476 536 427 542 322 c 1
 438 322 l 1
EndSplineSet
Validated: 1
EndChar

StartChar: ZLM_FULL_OI
Encoding: 505 926969 363
Width: 550
VWidth: 1024
GlyphClass: 2
Flags: W
HStem: 0 80<25 425> 390 80<25 425>
VStem: 425 100<80 390>
LayerCount: 2
Fore
SplineSet
425 390 m 1
 291.666992188 390 158.333007812 390 25 390 c 1
 25 470 l 1
 525 470 l 1
 525 0 l 1
 358.333007812 0 191.666992188 0 25 0 c 1
 25 80 l 1
 425 80 l 1
 425 390 l 1
EndSplineSet
Validated: 1
EndChar

StartChar: ZLM_FULL_AU
Encoding: 506 926970 364
Width: 547
VWidth: 1024
GlyphClass: 2
Flags: W
HStem: 0 21G<24 140.021 406.979 523>
LayerCount: 2
Fore
SplineSet
24 470 m 1
 124 470 l 1
 273.5 293.897460938 l 1
 423 470 l 1
 456.333007812 470 489.666992188 470 523 470 c 1
 323.25 235.293945312 l 1
 523 0 l 1
 424 0 l 1
 273.5 176.837890625 l 1
 123 0 l 1
 24 0 l 1
 223.75 235.293945312 l 1
 24 470 l 1
EndSplineSet
Validated: 1
EndChar

